<svg height="512" viewBox="0 0 64 64" width="512" xmlns="http://www.w3.org/2000/svg"><g id="Layer_9" data-name="Layer 9"><path d="m58 17h-27l7 10-7 13-2-10-12-6-4.667-7h-6.333a4 4 0 0 0 -4 4v32a4 4 0 0 0 4 4h52a4 4 0 0 0 4-4v-32a4 4 0 0 0 -4-4z" fill="#4d5d79"/><path d="m50 13h8v4h-8z" fill="#717d94"/><path d="m38 27-7 13-2-10-8-4h-19v22h60v-22h-24.7z" fill="#f5b95b"/><path d="m37.3 26 .7 1-7 13-2-10-8-4h-19v18h52a4 4 0 0 0 4-4v-14z" fill="#f9d18f"/><path d="m35.526 23.466 2.474 3.534-7 13-2-10-6.509-3.254a14 14 0 1 0 13.035-3.28z" fill="#717d94"/><path d="m49 34h-3.335a13.7 13.7 0 0 1 .005 6h3.33a3 3 0 0 0 0-6z" fill="#88929f"/><g fill="#4d5d79"><path d="m36.258 30.236-5.258 9.764-2-10-.434-.217a8 8 0 1 0 7.692.453z"/><path d="m32 13-2-5h5z"/><path d="m22 15-2 5 5-1z"/></g><path d="m59 16.1v-3.1a1 1 0 0 0 -1-1h-8a1 1 0 0 0 -1 1v3h-18a1 1 0 0 0 -.819 1.573l6.646 9.5-5.391 10.008-1.456-7.281a1 1 0 0 0 -.533-.7l-11.762-5.876-4.519-6.779a1 1 0 0 0 -.833-.445h-6.333a5.006 5.006 0 0 0 -5 5v32a5.006 5.006 0 0 0 5 5h52a5.006 5.006 0 0 0 5-5v-32a5.009 5.009 0 0 0 -4-4.9zm-8-2.1h6v2h-6zm7 4a3 3 0 0 1 3 3v4h-20.007a14.938 14.938 0 0 0 -4.861-2.412l-3.212-4.588zm-37.191 9.023a14.94 14.94 0 0 0 .042 19.977h-17.851v-20h17.764zm-1.809 9.977a13.032 13.032 0 0 1 3.683-9.04l3.847 1.923a8.993 8.993 0 1 0 11.024.055l1.326-2.464a1 1 0 0 0 -.061-1.047l-.588-.841a13 13 0 1 1 -19.231 11.414zm27.854-2h2.146a2 2 0 0 1 0 4h-2.149a13.633 13.633 0 0 0 0-4zm-.412 6h2.558a4 4 0 0 0 0-8h-2.55a15 15 0 0 0 -3.271-6h17.821v20h-17.851a14.962 14.962 0 0 0 3.293-6zm-16.422-.8a1 1 0 0 0 1.86.278l4.714-8.754a7 7 0 1 1 -8.389-.595zm-24.02-22.2h5.8l4.37 6.555a1.01 1.01 0 0 0 .385.34l.211.105h-13.766v-4a3 3 0 0 1 3-3zm52 38h-52a3 3 0 0 1 -3-3v-4h20.038a14.886 14.886 0 0 0 17.924 0h20.038v4a3 3 0 0 1 -3 3z"/><path d="m31.071 13.372a1 1 0 0 0 .849.628h.08a1 1 0 0 0 .857-.485l3-5a1 1 0 0 0 -.857-1.515h-5a1 1 0 0 0 -.929 1.372zm2.163-4.372-1.054 1.757-.703-1.757z"/><path d="m20 21a.932.932 0 0 0 .2-.02l5-1a1 1 0 0 0 .6-1.58l-3-4a1 1 0 0 0 -1.729.228l-2 5a1 1 0 0 0 .929 1.372zm2.268-3.977.98 1.308-1.634.326z"/><path d="m27 23h2v2h-2z"/><path d="m14 10h2v2h-2z"/><path d="m24 6h2v2h-2z"/></g></svg>